<svg width="627" height="676" viewBox="0 0 627 676" fill="none" xmlns="http://www.w3.org/2000/svg">
<path fill-rule="evenodd" clip-rule="evenodd" d="M604.622 292.225L603.601 295.313L602.582 298.381L601.569 301.429L600.561 304.459L599.561 307.472L598.57 310.467L597.59 313.447L596.621 316.412L595.666 319.364L594.724 322.303L593.798 325.23L592.888 328.148L591.995 331.056L591.12 333.957L590.264 336.852L589.428 339.741L588.611 342.626L587.815 345.509L587.04 348.39L586.286 351.272L585.553 354.155L584.841 357.04L584.15 359.93L583.48 362.825L582.831 365.726L582.202 368.635L581.592 371.552L581.002 374.48L580.43 377.419L579.875 380.37L579.337 383.334L578.815 386.312L578.308 389.306L577.814 392.315L577.332 395.341L576.862 398.385L576.401 401.447L575.949 404.528L575.504 407.628L575.064 410.748L574.629 413.889L574.196 417.05L573.764 420.233L573.332 423.437L572.897 426.663L572.458 429.911L572.015 433.181L571.564 436.472L571.105 439.786L570.636 443.122L570.155 446.48L569.661 449.86L569.153 453.262L568.628 456.686L568.086 460.13L567.525 463.596L566.943 467.082L566.338 470.588L565.709 474.114L565.055 477.658L564.372 481.22L563.661 484.8L562.919 488.395L562.145 492.006L561.336 495.631L560.491 499.269L559.609 502.919L558.688 506.579L557.727 510.249L556.723 513.926L555.676 517.61L554.583 521.298L553.444 524.989L552.256 528.682L551.019 532.374L549.732 536.065L548.392 539.751L546.999 543.431L545.552 547.103L544.05 550.766L542.491 554.416L540.874 558.052L539.199 561.673L537.465 565.275L535.672 568.856L533.817 572.415L531.902 575.949L529.925 579.455L527.886 582.933L525.785 586.378L523.621 589.79L521.394 593.165L519.104 596.503L516.752 599.799L514.337 603.053L511.859 606.261L509.319 609.422L506.716 612.534L504.053 615.594L501.328 618.6L498.542 621.551L495.697 624.444L492.793 627.277L489.83 630.048L486.81 632.756L483.734 635.398L480.602 637.973L477.416 640.477L474.176 642.911L470.884 645.271L467.541 647.555L464.148 649.761L460.706 651.888L457.217 653.934L453.681 655.896L450.101 657.772L446.479 659.561L442.814 661.262L439.11 662.871L435.368 664.388L431.59 665.811L427.777 667.139L423.932 668.37L420.056 669.502L416.152 670.535L412.222 671.466L408.267 672.297L404.29 673.024L400.294 673.648L396.279 674.168L392.25 674.583L388.208 674.892L384.155 675.096L380.094 675.193L376.027 675.185L371.957 675.071L367.887 674.85L363.817 674.524L359.752 674.093L355.694 673.557L351.644 672.916L347.606 672.172L343.581 671.326L339.572 670.378L335.582 669.329L331.613 668.181L327.666 666.934L323.745 665.591L319.851 664.152L315.987 662.62L312.154 660.995L308.355 659.279L304.592 657.475L300.866 655.583L297.18 653.606L293.535 651.545L289.933 649.403L286.376 647.182L282.865 644.883L279.402 642.509L275.989 640.063L272.625 637.548L269.314 634.965L266.056 632.317L262.853 629.608L259.704 626.839L256.612 624.015L253.576 621.138L250.598 618.21L247.678 615.236L244.817 612.217L242.015 609.158L239.272 606.062L236.588 602.931L233.964 599.769L231.4 596.579L228.894 593.364L226.448 590.128L224.059 586.873L221.729 583.603L219.456 580.321L217.24 577.03L215.08 573.733L212.975 570.433L210.923 567.133L208.924 563.836L206.977 560.544L205.081 557.261L203.233 553.989L201.434 550.731L199.68 547.489L197.971 544.265L196.305 541.062L194.68 537.883L193.095 534.728L191.548 531.6L190.036 528.501L188.559 525.433L187.115 522.397L185.701 519.395L184.315 516.428L182.956 513.498L181.622 510.605L180.311 507.75L179.021 504.935L177.75 502.16L176.496 499.426L175.257 496.733L174.032 494.081L172.818 491.472L171.614 488.906L170.417 486.383L169.226 483.903L168.039 481.466L166.853 479.072L165.668 476.722L164.48 474.416L163.289 472.152L162.092 469.931L160.887 467.753L159.674 465.617L158.449 463.522L157.212 461.468L155.961 459.454L154.695 457.48L153.411 455.543L152.109 453.644L150.788 451.781L149.446 449.953L148.081 448.159L146.694 446.398L145.283 444.667L143.846 442.966L142.385 441.293L140.897 439.646L139.382 438.024L137.84 436.425L136.271 434.848L134.673 433.29L133.048 431.75L131.394 430.226L129.712 428.716L128.002 427.219L126.264 425.732L124.498 424.253L122.705 422.781L120.885 421.314L119.038 419.85L117.166 418.387L115.268 416.924L113.346 415.458L111.399 413.988L109.43 412.513L107.438 411.03L105.424 409.538L103.39 408.036L101.336 406.521L99.2628 404.993L97.1714 403.451L95.0628 401.892L92.9382 400.316L90.7986 398.721L88.6454 397.105L86.4797 395.468L84.3031 393.808L82.1169 392.125L79.9225 390.416L77.7216 388.68L75.5159 386.918L73.3068 385.127L71.0962 383.306L68.8859 381.455L66.6776 379.573L64.4732 377.659L62.2746 375.712L60.0837 373.732L57.9025 371.717L55.733 369.668L53.5771 367.584L51.4368 365.464L49.3143 363.309L47.2115 361.117L45.1305 358.889L43.0734 356.624L41.0422 354.323L39.0389 351.985L37.0657 349.611L35.1244 347.201L33.2171 344.755L31.3458 342.273L29.5125 339.755L27.7191 337.203L25.9674 334.616L24.2594 331.995L22.5969 329.341L20.9815 326.655L19.4152 323.937L17.8995 321.188L16.436 318.409L15.0265 315.601L13.6723 312.766L12.3749 309.903L11.1357 307.014L9.95608 304.101L8.83724 301.164L7.78039 298.205L6.78664 295.225L5.85703 292.225L4.99252 289.207L4.19403 286.172L3.46244 283.122L2.79862 280.057L2.20341 276.98L1.67762 273.892L1.22202 270.794L0.837328 267.688L0.524247 264.576L0.283414 261.459L0.115416 258.339L0.0207873 255.217L0 252.095L0.0534648 248.975L0.181526 245.858L0.384456 242.746L0.662458 239.642L1.01566 236.546L1.4441 233.46L1.94775 230.386L2.5265 227.325L3.18015 224.28L3.9084 221.252L4.7109 218.243L5.58717 215.253L6.53666 212.286L7.55875 209.342L8.65271 206.423L9.81771 203.531L11.0529 200.667L12.3572 197.832L13.7296 195.027L15.169 192.255L16.6741 189.516L18.2435 186.812L19.876 184.144L21.5701 181.512L23.3242 178.918L25.1368 176.363L27.0061 173.848L28.9306 171.373L30.9085 168.939L32.9379 166.548L35.0171 164.199L37.1441 161.893L39.3172 159.63L41.5342 157.412L43.7935 155.238L46.0928 153.108L48.4305 151.023L50.8044 148.983L53.2126 146.988L55.6533 145.037L58.1243 143.132L60.6238 141.271L63.1497 139.454L65.6999 137.681L68.2724 135.951L70.8651 134.265L73.476 132.62L76.1029 131.017L78.7438 129.455L81.3967 127.932L84.0594 126.448L86.7301 125.002L89.4067 123.592L92.0874 122.217L94.77 120.876L97.4529 119.567L100.134 118.29L102.812 117.041L105.485 115.821L108.151 114.627L110.809 113.458L113.458 112.311L116.095 111.185L118.719 110.078L121.33 108.989L123.926 107.914L126.506 106.854L129.069 105.805L131.615 104.765L134.141 103.733L136.648 102.707L139.136 101.685L141.603 100.665L144.049 99.6447L146.474 98.6227L148.878 97.5971L151.26 96.5661L153.621 95.528L155.961 94.4811L158.28 93.4238L160.578 92.3545L162.856 91.2717L165.114 90.1741L167.353 89.0604L169.574 87.9292L171.776 86.7795L173.963 85.6101L176.133 84.4202L178.288 83.2089L180.43 81.9754L182.559 80.7191L184.677 79.4396L186.784 78.1363L188.883 76.8092L190.975 75.458L193.06 74.0827L195.141 72.6836L197.219 71.261L199.295 69.8151L201.372 68.3466L203.45 66.8562L205.531 65.3447L207.617 63.813L209.709 62.2622L211.809 60.6936L213.918 59.1083L216.038 57.508L218.171 55.894L220.316 54.2681L222.477 52.6319L224.654 50.9874L226.849 49.3364L229.062 47.6809L231.295 46.0231L233.549 44.3651L235.824 42.7089L238.122 41.057L240.444 39.4116L242.79 37.7749L245.161 36.1493L247.557 34.5371L249.979 32.9407L252.427 31.3624L254.901 29.8045L257.402 28.2693L259.93 26.7591L262.485 25.276L265.066 23.8222L267.674 22.3997L270.308 21.0107L272.968 19.6568L275.653 18.3401L278.363 17.0621L281.098 15.8246L283.856 14.6289L286.638 13.4765L289.442 12.3685L292.268 11.306L295.114 10.2899L297.981 9.32103L300.866 8.39994L303.77 7.52706L306.692 6.70272L309.63 5.92713L312.584 5.20043L315.552 4.52265L318.534 3.89374L321.53 3.31358L324.538 2.78196L327.557 2.29856L330.586 1.86301L333.626 1.47487L336.675 1.13361L339.732 0.838634L342.797 0.589284L345.87 0.384846L348.948 0.224545L352.033 0.107557L355.124 0.0330127L358.219 0L361.32 0.00757218L364.424 0.0547518L367.533 0.140537L370.645 0.263905L373.761 0.423821L376.881 0.619241L380.003 0.84912L383.129 1.11241L386.258 1.40809L389.39 1.73513L392.526 2.09253L395.664 2.47931L398.807 2.89454L401.953 3.3373L405.102 3.80672L408.256 4.30198L411.414 4.8223L414.577 5.36695L417.745 5.93528L420.917 6.52667L424.095 7.14059L427.279 7.77655L430.469 8.43416L433.666 9.11307L436.869 9.81303L440.079 10.5338L443.296 11.2754L446.521 12.0377L449.753 12.8207L452.994 13.6247L456.242 14.4497L459.499 15.2961L462.763 16.1641L466.036 17.0544L469.317 17.9673L472.606 18.9037L475.902 19.8644L479.206 20.8503L482.516 21.8626L485.832 22.9024L489.153 23.9709L492.479 25.0696L495.808 26.1999L499.14 27.3632L502.472 28.5611L505.803 29.7951L509.133 31.0668L512.459 32.3779L515.78 33.7299L519.094 35.1245L522.399 36.5632L525.692 38.0476L528.973 39.5793L532.237 41.1597L535.485 42.7903L538.711 44.4725L541.916 46.2074L545.095 47.9964L548.247 49.8406L551.368 51.741L554.456 53.6986L557.509 55.7141L560.524 57.7884L563.497 59.922L566.427 62.1154L569.311 64.369L572.145 66.6829L574.928 69.0573L577.657 71.4921L580.329 73.9873L582.941 76.5424L585.492 79.157L587.979 81.8305L590.399 84.5623L592.752 87.3515L595.033 90.1971L597.242 93.0979L599.377 96.0529L601.436 99.0605L603.418 102.119L605.32 105.228L607.143 108.384L608.884 111.587L610.543 114.834L612.12 118.123L613.612 121.453L615.021 124.821L616.345 128.224L617.585 131.662L618.74 135.131L619.811 138.63L620.797 142.155L621.699 145.706L622.518 149.279L623.254 152.872L623.908 156.483L624.48 160.109L624.973 163.749L625.387 167.4L625.723 171.06L625.983 174.726L626.168 178.397L626.28 182.07L626.321 185.744L626.293 189.416L626.197 193.084L626.035 196.747L625.81 200.402L625.524 204.049L625.179 207.685L624.778 211.309L624.322 214.919L623.815 218.514L623.258 222.093L622.654 225.654L622.006 229.197L621.317 232.72L620.588 236.223L619.823 239.704L619.024 243.164L618.194 246.6L617.334 250.014L616.448 253.404L615.539 256.77L614.608 260.112L613.658 263.43L612.691 266.724L611.71 269.993L610.717 273.238L609.714 276.46L608.703 279.658L607.687 282.833L606.667 285.986L605.644 289.116L604.622 292.225Z" fill="#FBFCFF"/>
</svg>
