<svg width="117" height="40" viewBox="0 0 117 40" fill="none" xmlns="http://www.w3.org/2000/svg">
<path d="M12.7439 39.6029H8.21538V16.9706H0V13H20.9993V16.9706H12.7439V39.6029Z" fill="#254396"/>
<path d="M27.2257 39.6029H22.7373V20.2662H27.2257V25.7456C27.947 22.6485 29.9107 19.8691 33.3972 19.8691C35.8418 19.8691 37.6452 21.4574 37.6452 24.3162C37.6452 26.1824 37.1242 27.5721 36.7635 28.1676H32.1549C32.7961 27.5324 33.3972 26.2618 33.3972 25.15C33.3972 24.0779 32.8762 23.2044 31.5538 23.2044C29.3096 23.2044 27.2257 25.7456 27.2257 28.9618V39.6029Z" fill="#254396"/>
<path d="M44.5544 40C41.3484 40 39.4248 38.2132 39.4248 35.4338C39.4248 32.6941 41.3484 31.0265 44.5143 29.7956L51.0465 27.0559C50.8862 25.1103 50.0046 23.8 47.3195 23.8C44.7147 23.8 42.6708 25.3088 41.5487 27.3338L38.8637 24.1574C40.3866 22.0926 43.4323 19.8691 47.7604 19.8691C52.6094 19.8691 55.3345 22.6088 55.3345 27.3735V34.6397C55.3345 35.5132 55.6551 35.7912 56.3765 35.7912H57.6188V39.6029H54.8536C52.7697 39.6029 51.1267 38.65 51.1267 35.8706V34.4412C50.5255 36.9824 48.642 40 44.5544 40ZM43.7529 34.7588C43.7529 35.8706 44.5143 36.5456 46.1574 36.5456C49.1229 36.5456 51.1267 34.7985 51.1267 32.1779V30.1132L46.1173 32.3368C44.4341 33.0912 43.7529 33.7662 43.7529 34.7588Z" fill="#254396"/>
<path d="M70.6507 39.6029H64.92L57.987 20.2662H62.9563L66.2825 30.7882L67.8855 36.7044L69.4485 30.7882L72.7346 20.2662H77.6238L70.6507 39.6029Z" fill="#254396"/>
<path d="M87.3473 40C81.7368 40 77.8896 35.95 77.8896 29.9544C77.8896 23.9191 81.7368 19.8691 87.3473 19.8691C93.0379 19.8691 96.8851 23.9191 96.8851 29.9544C96.8851 35.95 93.0379 40 87.3473 40ZM87.3874 36.3074C90.3128 36.3074 92.3166 34.4015 92.3166 29.9544C92.3166 25.4676 90.3128 23.5618 87.3874 23.5618C84.502 23.5618 82.4982 25.4676 82.4982 29.9544C82.4982 34.4015 84.502 36.3074 87.3874 36.3074Z" fill="#254396"/>
<path d="M102.252 39.6029H97.1228L104.016 29.9147L97.5235 20.2662H102.653L105.458 24.6338L107.262 27.7309L108.985 24.7529L111.87 20.2662H117L110.227 29.8353L116.8 39.6029H111.67L108.785 35.1162L106.941 32.0588L105.138 35.0765L102.252 39.6029Z" fill="#254396"/>
<path d="M45.658 1.57973C43.989 1.68755 42.6753 3.12486 43.0709 4.75647C43.7668 7.62592 45.3038 10.2285 47.5211 12.2188C50.4868 14.8808 54.4265 16.2295 58.4736 15.968C62.5208 15.7065 66.3438 13.8564 69.1017 10.8247C71.128 8.5971 72.4574 5.86568 72.9618 2.9764C73.2621 1.25642 71.7466 -0.105661 70.0111 0.00645811C68.3421 0.11428 67.1117 1.57089 66.625 3.1775C66.2264 4.49352 65.5333 5.72408 64.5831 6.7687C62.9397 8.57533 60.6615 9.67781 58.2498 9.83361C55.8381 9.98941 53.4904 9.18577 51.7232 7.59948C50.7513 6.7271 49.9988 5.65731 49.5037 4.47203C48.8311 2.86171 47.3936 1.46761 45.658 1.57973Z" fill="url(#paint0_linear_32_790)"/>
<defs>
<linearGradient id="paint0_linear_32_790" x1="48.8348" y1="-11.1759" x2="67.0984" y2="12.6794" gradientUnits="userSpaceOnUse">
<stop stop-color="#ED18DE"/>
<stop offset="1" stop-color="#EEAF2E"/>
</linearGradient>
</defs>
</svg>
