<svg width="117" height="27" viewBox="0 0 117 27" fill="none" xmlns="http://www.w3.org/2000/svg">
<path d="M12.7439 26.6029H8.21538V3.97059H0V0H20.9993V3.97059H12.7439V26.6029Z" fill="#254396"/>
<path d="M27.2257 26.6029H22.7373V7.26618H27.2257V12.7456C27.947 9.64853 29.9107 6.86912 33.3972 6.86912C35.8418 6.86912 37.6452 8.45735 37.6452 11.3162C37.6452 13.1824 37.1242 14.5721 36.7635 15.1676H32.1549C32.7961 14.5324 33.3972 13.2618 33.3972 12.15C33.3972 11.0779 32.8762 10.2044 31.5538 10.2044C29.3096 10.2044 27.2257 12.7456 27.2257 15.9618V26.6029Z" fill="#254396"/>
<path d="M44.5544 27C41.3484 27 39.4248 25.2132 39.4248 22.4338C39.4248 19.6941 41.3484 18.0265 44.5143 16.7956L51.0465 14.0559C50.8862 12.1103 50.0046 10.8 47.3195 10.8C44.7147 10.8 42.6708 12.3088 41.5487 14.3338L38.8637 11.1574C40.3866 9.09265 43.4323 6.86912 47.7604 6.86912C52.6094 6.86912 55.3345 9.60882 55.3345 14.3735V21.6397C55.3345 22.5132 55.6551 22.7912 56.3765 22.7912H57.6188V26.6029H54.8536C52.7697 26.6029 51.1267 25.65 51.1267 22.8706V21.4412C50.5255 23.9824 48.642 27 44.5544 27ZM43.7529 21.7588C43.7529 22.8706 44.5143 23.5456 46.1574 23.5456C49.1229 23.5456 51.1267 21.7985 51.1267 19.1779V17.1132L46.1173 19.3368C44.4341 20.0912 43.7529 20.7662 43.7529 21.7588Z" fill="#254396"/>
<path d="M70.6507 26.6029H64.92L57.987 7.26618H62.9563L66.2825 17.7882L67.8855 23.7044L69.4485 17.7882L72.7346 7.26618H77.6238L70.6507 26.6029Z" fill="#254396"/>
<path d="M87.3473 27C81.7368 27 77.8896 22.95 77.8896 16.9544C77.8896 10.9191 81.7368 6.86912 87.3473 6.86912C93.0379 6.86912 96.8851 10.9191 96.8851 16.9544C96.8851 22.95 93.0379 27 87.3473 27ZM87.3874 23.3074C90.3128 23.3074 92.3166 21.4015 92.3166 16.9544C92.3166 12.4676 90.3128 10.5618 87.3874 10.5618C84.502 10.5618 82.4982 12.4676 82.4982 16.9544C82.4982 21.4015 84.502 23.3074 87.3874 23.3074Z" fill="#254396"/>
<path d="M102.252 26.6029H97.1228L104.016 16.9147L97.5235 7.26618H102.653L105.458 11.6338L107.262 14.7309L108.985 11.7529L111.87 7.26618H117L110.227 16.8353L116.8 26.6029H111.67L108.785 22.1162L106.941 19.0588L105.138 22.0765L102.252 26.6029Z" fill="#254396"/>
</svg>
