<svg width="19" height="10" viewBox="0 0 19 10" fill="none" xmlns="http://www.w3.org/2000/svg">
<path fill-rule="evenodd" clip-rule="evenodd" d="M0.823618 8.68119C0.392181 8.24975 0.392181 7.55025 0.823618 7.11882L7.4522 0.490231C7.88364 0.058794 8.58314 0.058794 9.01458 0.490231L12.6524 4.1281L16.2903 0.490231C16.7218 0.058794 17.4213 0.058794 17.8527 0.490231C18.2841 0.921668 18.2841 1.62117 17.8527 2.0526L13.4336 6.47166C13.0022 6.9031 12.3027 6.9031 11.8713 6.47166L8.23339 2.83379L2.38599 8.68119C1.95455 9.11263 1.25505 9.11263 0.823618 8.68119Z" fill="#DF3434"/>
<path fill-rule="evenodd" clip-rule="evenodd" d="M6.02393 8.72858C6.02393 9.33872 5.52931 9.83334 4.91916 9.83334H1.60487C0.994724 9.83334 0.500104 9.33872 0.500104 8.72858V5.41429C0.500104 4.80414 0.994724 4.30952 1.60487 4.30952C2.21501 4.30952 2.70963 4.80414 2.70963 5.41429V7.62381H4.91916C5.52931 7.62381 6.02393 8.11843 6.02393 8.72858Z" fill="#DF3434"/>
</svg>
