<svg width="18" height="10" viewBox="0 0 18 10" fill="none" xmlns="http://www.w3.org/2000/svg">
<path fill-rule="evenodd" clip-rule="evenodd" d="M17.3527 1.31881C17.7841 1.75025 17.7841 2.44975 17.3527 2.88118L10.7241 9.50977C10.2926 9.94121 9.59313 9.94121 9.16169 9.50977L5.52382 5.8719L1.88595 9.50977C1.45451 9.94121 0.755015 9.94121 0.323578 9.50977C-0.107859 9.07833 -0.107859 8.37883 0.323578 7.9474L4.74264 3.52834C5.17407 3.0969 5.87357 3.0969 6.30501 3.52834L9.94288 7.16621L15.7903 1.31881C16.2217 0.887372 16.9212 0.887372 17.3527 1.31881Z" fill="#37DF34"/>
<path fill-rule="evenodd" clip-rule="evenodd" d="M12.1523 1.27142C12.1523 0.661276 12.647 0.166656 13.2571 0.166656H16.5714C17.1815 0.166656 17.6762 0.661276 17.6762 1.27142V4.58571C17.6762 5.19586 17.1815 5.69048 16.5714 5.69048C15.9613 5.69048 15.4666 5.19586 15.4666 4.58571V2.37619H13.2571C12.647 2.37619 12.1523 1.88157 12.1523 1.27142Z" fill="#37DF34"/>
</svg>
