<svg width="20" height="20" viewBox="0 0 20 20" fill="none" xmlns="http://www.w3.org/2000/svg">
<path d="M9.58333 11.6763C7.87781 11.597 6.15278 12.0053 4.64798 12.9013C3.469 13.6033 0.377801 15.0368 2.26055 16.8305C3.18026 17.7067 4.20457 18.3333 5.49239 18.3333H10" stroke="#ACACAC" stroke-width="1.5" stroke-linecap="round" stroke-linejoin="round"/>
<path d="M12.9167 5.41666C12.9167 7.48772 11.2377 9.16666 9.16666 9.16666C7.0956 9.16666 5.41666 7.48772 5.41666 5.41666C5.41666 3.34559 7.0956 1.66666 9.16666 1.66666C11.2377 1.66666 12.9167 3.34559 12.9167 5.41666Z" stroke="#ACACAC" stroke-width="1.5"/>
<path d="M15 17.2619V18.3333M15 17.2619C14.036 17.2619 13.1867 16.7884 12.6886 16.0694M15 17.2619C15.964 17.2619 16.8133 16.7884 17.3114 16.0694M15 11.9047C15.9641 11.9047 16.8134 12.3783 17.3115 13.0974M15 11.9047C14.0359 11.9047 13.1866 12.3783 12.6885 13.0974M15 11.9047V10.8333M18.3333 12.4405L17.3115 13.0974M11.667 16.7262L12.6886 16.0694M11.6667 12.4405L12.6885 13.0974M18.333 16.7262L17.3114 16.0694M17.3115 13.0974C17.6061 13.5226 17.7778 14.0336 17.7778 14.5833C17.7778 15.1331 17.606 15.6442 17.3114 16.0694M12.6885 13.0974C12.3939 13.5226 12.2222 14.0336 12.2222 14.5833C12.2222 15.1331 12.394 15.6442 12.6886 16.0694" stroke="#ACACAC" stroke-width="1.5" stroke-linecap="round"/>
</svg>
