<svg width="20" height="20" viewBox="0 0 20 20" fill="none" xmlns="http://www.w3.org/2000/svg">
<path d="M18.3333 13.3333C18.3333 10.5719 16.0948 8.33333 13.3333 8.33333C10.5719 8.33333 8.33333 10.5719 8.33333 13.3333C8.33333 16.0948 10.5719 18.3333 13.3333 18.3333C16.0948 18.3333 18.3333 16.0948 18.3333 13.3333Z" stroke="#ACACAC" stroke-width="1.5"/>
<path d="M11.6667 13.8889C11.6667 13.8889 12.1875 13.8889 12.7083 15C12.7083 15 14.3627 12.2222 15.8333 11.6667" stroke="#ACACAC" stroke-width="1.5" stroke-linecap="round" stroke-linejoin="round"/>
<path d="M2.91666 9.66506L3.29166 9.01555L3.29166 9.01554L2.91666 9.66506ZM2.0016 8.75L1.35208 9.125H1.35208L2.0016 8.75ZM17.0833 2.0016L16.7083 2.65112L16.7083 2.65112L17.0833 2.0016ZM17.9984 2.91667L18.6479 2.54167L18.6479 2.54167L17.9984 2.91667ZM2.91666 2.0016L3.29166 2.65112L2.91666 2.0016ZM2.0016 2.91667L2.65112 3.29167V3.29167L2.0016 2.91667ZM17.5409 7.62894C17.5004 8.04118 17.8018 8.40816 18.214 8.44863C18.6263 8.4891 18.9933 8.18773 19.0337 7.7755L17.5409 7.62894ZM6.61293 10.75C7.02714 10.75 7.36293 10.4142 7.36293 10C7.36293 9.58579 7.02714 9.25 6.61293 9.25V10.75ZM5.83333 2.41667H14.1667V0.916668H5.83333V2.41667ZM5.83333 9.25C5.04068 9.25 4.49634 9.24928 4.07611 9.2112C3.66619 9.17404 3.44855 9.10613 3.29166 9.01555L2.54166 10.3146C2.9649 10.5589 3.42675 10.6585 3.94071 10.7051C4.44436 10.7507 5.06829 10.75 5.83333 10.75V9.25ZM0.916664 5.83333C0.916664 6.59838 0.915946 7.22231 0.961593 7.72595C1.00817 8.23991 1.10772 8.70176 1.35208 9.125L2.65112 8.375C2.56054 8.21811 2.49262 8.00048 2.45547 7.59056C2.41738 7.17033 2.41666 6.62598 2.41666 5.83333H0.916664ZM3.29166 9.01554C3.02563 8.86195 2.80471 8.64103 2.65112 8.375L1.35208 9.125C1.63733 9.61906 2.0476 10.0293 2.54166 10.3146L3.29166 9.01554ZM14.1667 2.41667C14.9593 2.41667 15.5037 2.41739 15.9239 2.45547C16.3338 2.49263 16.5514 2.56054 16.7083 2.65112L17.4583 1.35209C17.0351 1.10773 16.5732 1.00818 16.0593 0.961597C15.5556 0.915949 14.9317 0.916668 14.1667 0.916668V2.41667ZM19.0833 5.83333C19.0833 5.06829 19.084 4.44436 19.0384 3.94072C18.9918 3.42676 18.8923 2.96491 18.6479 2.54167L17.3489 3.29167C17.4395 3.44856 17.5074 3.66619 17.5445 4.07611C17.5826 4.49634 17.5833 5.04069 17.5833 5.83333H19.0833ZM16.7083 2.65112C16.9744 2.80472 17.1953 3.02563 17.3489 3.29167L18.6479 2.54167C18.3627 2.04761 17.9524 1.63733 17.4583 1.35208L16.7083 2.65112ZM5.83333 0.916668C5.06829 0.916668 4.44436 0.915949 3.94071 0.961597C3.42675 1.00818 2.9649 1.10773 2.54166 1.35209L3.29166 2.65112C3.44855 2.56054 3.66619 2.49263 4.07611 2.45547C4.49634 2.41739 5.04068 2.41667 5.83333 2.41667V0.916668ZM2.41666 5.83333C2.41666 5.04069 2.41738 4.49634 2.45547 4.07611C2.49262 3.66619 2.56054 3.44856 2.65112 3.29167L1.35208 2.54167C1.10772 2.96491 1.00817 3.42676 0.961593 3.94072C0.915946 4.44436 0.916664 5.06829 0.916664 5.83333H2.41666ZM2.54166 1.35209C2.0476 1.63733 1.63733 2.04761 1.35208 2.54167L2.65112 3.29167C2.80471 3.02563 3.02563 2.80472 3.29166 2.65112L2.54166 1.35209ZM17.5833 5.83333C17.5833 6.65229 17.5825 7.2054 17.5409 7.62894L19.0337 7.7755C19.0842 7.26158 19.0833 6.62191 19.0833 5.83333H17.5833ZM6.61293 9.25H5.83333V10.75H6.61293V9.25Z" fill="#ACACAC"/>
<path d="M14.1667 5.83334H14.1741" stroke="#ACACAC" stroke-width="2" stroke-linecap="round" stroke-linejoin="round"/>
<path d="M10 5.83334H10.0075" stroke="#ACACAC" stroke-width="2" stroke-linecap="round" stroke-linejoin="round"/>
<path d="M5.83333 5.83334H5.84081" stroke="#ACACAC" stroke-width="2" stroke-linecap="round" stroke-linejoin="round"/>
</svg>
