<svg width="18" height="20" viewBox="0 0 18 20" fill="none" xmlns="http://www.w3.org/2000/svg">
<path d="M8.9985 1.66667C6.49202 1.66667 4.86682 3.34916 2.94476 3.96242C2.16324 4.21177 1.77248 4.33645 1.61434 4.51221C1.4562 4.68796 1.40989 4.94479 1.31727 5.45845C0.326198 10.955 2.49242 16.0366 7.65858 18.0146C8.21366 18.2271 8.49119 18.3333 9.00124 18.3333C9.51128 18.3333 9.7888 18.2271 10.3438 18.0146C15.5097 16.0366 17.6738 10.955 16.6825 5.45844C16.5898 4.9447 16.5435 4.68783 16.3853 4.51207C16.2271 4.33631 15.8364 4.21171 15.0549 3.96249C13.1321 3.34929 11.5051 1.66667 8.9985 1.66667Z" stroke="#ACACAC" stroke-width="1.5" stroke-linecap="round" stroke-linejoin="round"/>
<path d="M6.98359 13.2144L6.67935 13.8999H6.67935L6.98359 13.2144ZM6.19434 12.3688L5.4948 12.6392H5.4948L6.19434 12.3688ZM11.8057 12.3688L12.5052 12.6392V12.6392L11.8057 12.3688ZM11.0164 13.2144L11.3207 13.8999H11.3207L11.0164 13.2144ZM11.0164 8.76477L11.3207 8.07925L11.0164 8.76477ZM11.8057 9.61039L12.5052 9.33995V9.33995L11.8057 9.61039ZM6.98359 8.76477L6.67935 8.07925H6.67935L6.98359 8.76477ZM6.19434 9.61039L5.4948 9.33995L6.19434 9.61039ZM6.79167 8.64583C6.79167 9.06005 7.12746 9.39583 7.54167 9.39583C7.95588 9.39583 8.29167 9.06005 8.29167 8.64583H6.79167ZM9.70834 8.64583C9.70834 9.06005 10.0441 9.39583 10.4583 9.39583C10.8725 9.39583 11.2083 9.06005 11.2083 8.64583H9.70834ZM8.27084 9.39583H9.72917V7.89583H8.27084V9.39583ZM9.72917 12.5833H8.27084V14.0833H9.72917V12.5833ZM8.27084 12.5833C7.9201 12.5833 7.69728 12.5829 7.52758 12.5705C7.36571 12.5586 7.31029 12.5388 7.28782 12.5289L6.67935 13.8999C6.92488 14.0089 7.17334 14.0486 7.41822 14.0665C7.65527 14.0838 7.94208 14.0833 8.27084 14.0833V12.5833ZM5.33334 10.9896C5.33334 11.344 5.33298 11.6449 5.34873 11.8922C5.36484 12.1453 5.4 12.394 5.4948 12.6392L6.89389 12.0983C6.87768 12.0564 6.85733 11.9796 6.8457 11.7968C6.83369 11.6083 6.83334 11.3632 6.83334 10.9896H5.33334ZM7.28782 12.5289C7.12187 12.4552 6.97427 12.3062 6.89389 12.0983L5.4948 12.6392C5.71045 13.197 6.13065 13.6564 6.67935 13.8999L7.28782 12.5289ZM11.1667 10.9896C11.1667 11.3632 11.1663 11.6083 11.1543 11.7968C11.1427 11.9796 11.1223 12.0564 11.1061 12.0983L12.5052 12.6392C12.6 12.394 12.6352 12.1453 12.6513 11.8922C12.667 11.6449 12.6667 11.344 12.6667 10.9896H11.1667ZM9.72917 14.0833C10.0579 14.0833 10.3447 14.0838 10.5818 14.0665C10.8267 14.0486 11.0751 14.0089 11.3207 13.8999L10.7122 12.5289C10.6897 12.5388 10.6343 12.5586 10.4724 12.5705C10.3027 12.5829 10.0799 12.5833 9.72917 12.5833V14.0833ZM11.1061 12.0983C11.0257 12.3062 10.8781 12.4552 10.7122 12.5289L11.3207 13.8999C11.8694 13.6564 12.2896 13.197 12.5052 12.6392L11.1061 12.0983ZM9.72917 9.39583C10.0799 9.39583 10.3027 9.3963 10.4724 9.4087C10.6343 9.42054 10.6897 9.44032 10.7122 9.45029L11.3207 8.07925C11.0751 7.97028 10.8267 7.9306 10.5818 7.9127C10.3447 7.89537 10.0579 7.89583 9.72917 7.89583V9.39583ZM12.6667 10.9896C12.6667 10.6351 12.667 10.3343 12.6513 10.087C12.6352 9.83391 12.6 9.58516 12.5052 9.33995L11.1061 9.88083C11.1223 9.92276 11.1427 9.99959 11.1543 10.1823C11.1663 10.3709 11.1667 10.616 11.1667 10.9896H12.6667ZM10.7122 9.45029C10.8781 9.52395 11.0257 9.67292 11.1061 9.88083L12.5052 9.33995C12.2896 8.78214 11.8694 8.32277 11.3207 8.07925L10.7122 9.45029ZM8.27084 7.89583C7.94208 7.89583 7.65527 7.89537 7.41822 7.9127C7.17334 7.9306 6.92488 7.97028 6.67935 8.07925L7.28782 9.45029C7.31029 9.44032 7.36571 9.42054 7.52758 9.4087C7.69728 9.3963 7.9201 9.39583 8.27084 9.39583V7.89583ZM6.83334 10.9896C6.83334 10.616 6.83369 10.3709 6.8457 10.1823C6.85733 9.99959 6.87768 9.92276 6.89389 9.88083L5.4948 9.33995C5.4 9.58516 5.36484 9.83391 5.34873 10.087C5.33298 10.3343 5.33334 10.6351 5.33334 10.9896H6.83334ZM6.67935 8.07925C6.13065 8.32277 5.71045 8.78214 5.4948 9.33995L6.89389 9.88083C6.97427 9.67292 7.12187 9.52395 7.28782 9.45029L6.67935 8.07925ZM8.29167 8.64583V7.23958H6.79167V8.64583H8.29167ZM9.70834 7.23958V8.64583H11.2083V7.23958L9.70834 7.23958ZM9 6.58333C9.41715 6.58333 9.70834 6.90262 9.70834 7.23958L11.2083 7.23958C11.2083 6.02324 10.1937 5.08333 9 5.08333V6.58333ZM8.29167 7.23958C8.29167 6.90262 8.58286 6.58333 9 6.58333V5.08333C7.80632 5.08333 6.79167 6.02324 6.79167 7.23958H8.29167Z" fill="#ACACAC"/>
</svg>
