<svg width="20" height="20" viewBox="0 0 20 20" fill="none" xmlns="http://www.w3.org/2000/svg">
<g clip-path="url(#clip0_45_4887)">
<path d="M3.15732 7.53091C2.56783 7.85001 1.02223 8.50156 1.96361 9.31689C2.42346 9.71516 2.93562 10 3.57953 10H7.2538C7.89771 10 8.40987 9.71516 8.86972 9.31689C9.8111 8.50156 8.2655 7.85 7.67601 7.53091C6.29367 6.78263 4.53966 6.78263 3.15732 7.53091Z" stroke="#ACACAC" stroke-width="1.5"/>
<path d="M7.29166 3.56061C7.29166 4.60661 6.4522 5.45455 5.41666 5.45455C4.38113 5.45455 3.54166 4.60661 3.54166 3.56061C3.54166 2.51462 4.38113 1.66667 5.41666 1.66667C6.4522 1.66667 7.29166 2.51462 7.29166 3.56061Z" stroke="#ACACAC" stroke-width="1.5"/>
<path d="M3.33333 12.5C3.33333 15.2643 5.56904 17.5 8.33333 17.5L7.61904 16.0714" stroke="#ACACAC" stroke-width="1.5" stroke-linecap="round" stroke-linejoin="round"/>
<path d="M16.6667 7.5C16.6667 4.73572 14.4309 2.5 11.6667 2.5L12.3809 3.92857" stroke="#ACACAC" stroke-width="1.5" stroke-linecap="round" stroke-linejoin="round"/>
<path d="M12.324 15.8642C11.7345 16.1833 10.1889 16.8349 11.1303 17.6502C11.5901 18.0485 12.1023 18.3333 12.7462 18.3333H16.4205C17.0644 18.3333 17.5765 18.0485 18.0364 17.6502C18.9778 16.8349 17.4322 16.1833 16.8427 15.8642C15.4603 15.116 13.7063 15.116 12.324 15.8642Z" stroke="#ACACAC" stroke-width="1.5"/>
<path d="M16.4583 11.8939C16.4583 12.9399 15.6189 13.7879 14.5833 13.7879C13.5478 13.7879 12.7083 12.9399 12.7083 11.8939C12.7083 10.8479 13.5478 10 14.5833 10C15.6189 10 16.4583 10.8479 16.4583 11.8939Z" stroke="#ACACAC" stroke-width="1.5"/>
</g>
<defs>
<clipPath id="clip0_45_4887">
<rect width="20" height="20" fill="white"/>
</clipPath>
</defs>
</svg>
