<svg width="18" height="20" viewBox="0 0 18 20" fill="none" xmlns="http://www.w3.org/2000/svg">
<path d="M13.8145 11.3749L14.4745 12.7057C14.5645 12.8909 14.8044 13.0686 15.0069 13.1026L16.203 13.303C16.9679 13.4315 17.1479 13.9911 16.5967 14.543L15.6668 15.4806C15.5093 15.6394 15.4231 15.9456 15.4719 16.1649L15.7381 17.3255C15.948 18.2442 15.4644 18.5996 14.6582 18.1194L13.5371 17.4503C13.3346 17.3293 13.0009 17.3293 12.7946 17.4503L11.6735 18.1194C10.8711 18.5996 10.3837 18.2404 10.5936 17.3255L10.8599 16.1649C10.9086 15.9456 10.8224 15.6394 10.6649 15.4806L9.73499 14.543C9.18755 13.9911 9.36378 13.4315 10.1287 13.303L11.3248 13.1026C11.5235 13.0686 11.7635 12.8909 11.8535 12.7057L12.5134 11.3749C12.8734 10.6528 13.4583 10.6528 13.8145 11.3749Z" stroke="#ACACAC" stroke-width="1.5" stroke-linecap="round" stroke-linejoin="round"/>
<path d="M14 1.66666V3.33333M4 1.66666V3.33333" stroke="#ACACAC" stroke-width="1.5" stroke-linecap="round" stroke-linejoin="round"/>
<path d="M16.9165 9.58333C16.9131 6.36137 16.8556 4.69002 15.8732 3.62803C14.8298 2.5 13.1504 2.5 9.79167 2.5H8.20834C4.84958 2.5 3.1702 2.5 2.12677 3.62803C1.08334 4.75607 1.08334 6.57161 1.08334 10.2027V10.6306C1.08334 14.2617 1.08334 16.0773 2.12677 17.2053C3.12162 18.2808 4.69457 18.3309 7.75 18.3332" stroke="#ACACAC" stroke-width="1.5" stroke-linecap="round" stroke-linejoin="round"/>
<path d="M1.5 6.66666H16.5" stroke="#ACACAC" stroke-width="1.5" stroke-linecap="round" stroke-linejoin="round"/>
</svg>
