<svg width="20" height="19" viewBox="0 0 20 19" fill="none" xmlns="http://www.w3.org/2000/svg">
<path d="M4.31672 12.747C3.26874 13.3613 0.521008 14.6155 2.19456 16.185C3.01208 16.9517 3.92258 17.5 5.06731 17.5H11.5994C12.7441 17.5 13.6546 16.9517 14.4721 16.185C16.1457 14.6155 13.3979 13.3613 12.3499 12.747C9.89245 11.3066 6.77421 11.3066 4.31672 12.747Z" stroke="#ACACAC" stroke-width="1.5" stroke-linecap="round" stroke-linejoin="round"/>
<path d="M11.6667 5.83333C11.6667 7.67428 10.1743 9.16667 8.33333 9.16667C6.49238 9.16667 5 7.67428 5 5.83333C5 3.99238 6.49238 2.5 8.33333 2.5C10.1743 2.5 11.6667 3.99238 11.6667 5.83333Z" stroke="#ACACAC" stroke-width="1.5"/>
<path d="M16.25 5.95239V6.66667M16.25 5.95239C15.6475 5.95239 15.1167 5.63672 14.8054 5.1574M16.25 5.95239C16.8525 5.95239 17.3833 5.63672 17.6946 5.1574M16.25 2.38096C16.8525 2.38096 17.3834 2.69667 17.6947 3.17605M16.25 2.38096C15.6475 2.38096 15.1166 2.69667 14.8053 3.17605M16.25 2.38096V1.66667M18.3333 2.7381L17.6947 3.17605M14.1669 5.59524L14.8054 5.1574M14.1667 2.7381L14.8053 3.17605M18.3331 5.59524L17.6946 5.1574M17.6947 3.17605C17.8788 3.45951 17.9861 3.8002 17.9861 4.16667C17.9861 4.53319 17.8788 4.87392 17.6946 5.1574M14.8053 3.17605C14.6212 3.45951 14.5139 3.8002 14.5139 4.16667C14.5139 4.53319 14.6212 4.87392 14.8054 5.1574" stroke="#ACACAC" stroke-width="1.5" stroke-linecap="round"/>
</svg>
