<svg width="20" height="20" viewBox="0 0 20 20" fill="none" xmlns="http://www.w3.org/2000/svg">
<path d="M10.4166 18.3333H5.49235C4.20454 18.3333 3.18022 17.7067 2.26051 16.8305C0.377763 15.0368 3.46896 13.6033 4.64794 12.9013C6.3986 11.8589 8.44732 11.4766 10.4166 11.7543C11.1312 11.8551 11.8271 12.0428 12.5 12.3174" stroke="#254396" stroke-width="1.5" stroke-linecap="round" stroke-linejoin="round"/>
<path d="M13.75 5.41666C13.75 7.48772 12.0711 9.16666 10 9.16666C7.92893 9.16666 6.25 7.48772 6.25 5.41666C6.25 3.34559 7.92893 1.66666 10 1.66666C12.0711 1.66666 13.75 3.34559 13.75 5.41666Z" stroke="#254396" stroke-width="1.5"/>
<path d="M15.4167 18.3333L15.4167 12.5M12.5 15.4167H18.3333" stroke="#254396" stroke-width="1.5" stroke-linecap="round"/>
</svg>
