<svg width="30" height="16" viewBox="0 0 30 16" fill="none" xmlns="http://www.w3.org/2000/svg">
<path d="M2.65803 1.57973C0.989028 1.68755 -0.324733 3.12486 0.0709497 4.75647C0.766822 7.62592 2.30381 10.2285 4.52114 12.2188C7.48677 14.8808 11.4265 16.2295 15.4736 15.968C19.5208 15.7065 23.3438 13.8564 26.1017 10.8247C28.128 8.5971 29.4574 5.86568 29.9618 2.9764C30.2621 1.25642 28.7466 -0.105661 27.0111 0.00645811C25.3421 0.11428 24.1117 1.57089 23.625 3.1775C23.2264 4.49352 22.5333 5.72408 21.5831 6.7687C19.9397 8.57533 17.6615 9.67781 15.2498 9.83361C12.8381 9.98941 10.4904 9.18577 8.7232 7.59948C7.75131 6.7271 6.99877 5.65731 6.50369 4.47203C5.83108 2.86171 4.39356 1.46761 2.65803 1.57973Z" fill="url(#paint0_linear_32_789)"/>
<defs>
<linearGradient id="paint0_linear_32_789" x1="5.83482" y1="-11.1759" x2="24.0984" y2="12.6794" gradientUnits="userSpaceOnUse">
<stop stop-color="#ED18DE"/>
<stop offset="1" stop-color="#EEAF2E"/>
</linearGradient>
</defs>
</svg>
