<svg width="26" height="26" viewBox="0 0 26 26" fill="none" xmlns="http://www.w3.org/2000/svg">
<path d="M15.6389 3.19927C14.3949 1.95532 13.7729 1.33334 13 1.33334C12.2271 1.33334 11.6052 1.95532 10.3612 3.19927C9.61474 3.94575 8.87503 4.29231 7.8108 4.29231C6.88158 4.29231 5.55954 4.11209 4.83337 4.84436C4.11295 5.57084 4.29237 6.88744 4.29237 7.81074C4.29237 8.875 3.94578 9.61471 3.19929 10.3612C1.95535 11.6051 1.33338 12.2271 1.33337 13C1.33339 13.7729 1.95537 14.3949 3.19932 15.6388C4.03556 16.475 4.29237 17.015 4.29237 18.1892C4.29237 19.1185 4.11215 20.4405 4.84445 21.1667C5.57092 21.8871 6.8875 21.7077 7.81078 21.7077C8.94411 21.7077 9.48987 21.9294 10.2987 22.7382C10.9875 23.427 11.9107 24.6667 13.0001 24.6667C14.0894 24.6667 15.0127 23.4269 15.7014 22.7382C16.5102 21.9294 17.056 21.7077 18.1893 21.7077C19.1126 21.7077 20.4292 21.8871 21.1556 21.1667M22.8008 10.3612C24.0447 11.6051 24.6667 12.2271 24.6667 13C24.6667 13.7729 24.0447 14.3949 22.8008 15.6388C21.9645 16.475 21.7077 17.015 21.7077 18.1892C21.7077 19.1185 21.8879 20.4405 21.1556 21.1667M21.1556 21.1667H21.1667" stroke="#1EBFC4" stroke-width="1.5" stroke-linecap="round" stroke-linejoin="round"/>
<path d="M8.33337 11.0257C8.33337 11.0257 10.9584 10.6667 13 15.3333C13 15.3333 18.902 3.66668 24.6667 1.33334" stroke="#1EBFC4" stroke-width="1.5" stroke-linecap="round" stroke-linejoin="round"/>
</svg>
