<svg width="26" height="26" viewBox="0 0 26 26" fill="none" xmlns="http://www.w3.org/2000/svg">
<path d="M8.07963 18.9631C6.79586 19.7002 3.42988 21.2053 5.47999 23.0887C6.48145 24.0087 7.59681 24.6667 8.9991 24.6667H17.0009C18.4031 24.6667 19.5185 24.0087 20.52 23.0887C22.5701 21.2053 19.2041 19.7002 17.9203 18.9631C14.9099 17.2346 11.0901 17.2346 8.07963 18.9631Z" stroke="#F2441D" stroke-width="1.5" stroke-linecap="round" stroke-linejoin="round"/>
<path d="M17.0833 10.6667C17.0833 12.9218 15.2551 14.75 13 14.75C10.7448 14.75 8.91663 12.9218 8.91663 10.6667C8.91663 8.41151 10.7448 6.58334 13 6.58334C15.2551 6.58334 17.0833 8.41151 17.0833 10.6667Z" stroke="#F2441D" stroke-width="1.5"/>
<path d="M2.32965 17.6667C1.68915 16.2274 1.33331 14.6345 1.33331 12.9587C1.33331 6.53818 6.55666 1.33334 13 1.33334C19.4433 1.33334 24.6666 6.53818 24.6666 12.9587C24.6666 14.6345 24.3108 16.2274 23.6703 17.6667" stroke="#F2441D" stroke-width="1.5" stroke-linecap="round"/>
</svg>
