<svg width="26" height="26" viewBox="0 0 26 26" fill="none" xmlns="http://www.w3.org/2000/svg">
<path d="M1.33334 24.6667H24.6667" stroke="#3A6FF8" stroke-width="1.5" stroke-linecap="round"/>
<path d="M20 9.5H15.3333C12.4377 9.5 11.8333 10.1043 11.8333 13V24.6667H23.5V13C23.5 10.1043 22.8957 9.5 20 9.5Z" stroke="#3A6FF8" stroke-width="1.5" stroke-linejoin="round"/>
<path d="M16.5 24.6666H2.5V4.83331C2.5 1.93765 3.10433 1.33331 6 1.33331H13C15.8957 1.33331 16.5 1.93765 16.5 4.83331V9.49998" stroke="#3A6FF8" stroke-width="1.5" stroke-linejoin="round"/>
<path d="M2.5 6H6M2.5 10.6667H6M2.5 15.3333H6" stroke="#3A6FF8" stroke-width="1.5" stroke-linecap="round"/>
<path d="M16.5 14.1667H18.8333M16.5 17.6667H18.8333" stroke="#3A6FF8" stroke-width="1.5" stroke-linecap="round"/>
<path d="M17.6667 24.6667L17.6667 21.1667" stroke="#3A6FF8" stroke-width="1.5" stroke-linecap="round" stroke-linejoin="round"/>
</svg>
