<svg width="26" height="26" viewBox="0 0 26 26" fill="none" xmlns="http://www.w3.org/2000/svg">
<path d="M16.5 1.33334L20.5833 5.41668M20.5833 5.41668L24.6667 9.50001M20.5833 5.41668L24.6667 1.33334M20.5833 5.41668L16.5 9.50001" stroke="#F205B7" stroke-width="1.5" stroke-linecap="round" stroke-linejoin="round"/>
<path d="M6.11532 21.75C4.59853 21.6008 3.46225 21.1452 2.70021 20.3832C1.33337 19.0163 1.33337 16.8164 1.33337 12.4167V11.8333C1.33337 7.43356 1.33337 5.23367 2.70021 3.86684C4.06704 2.5 6.26693 2.5 10.6667 2.5H12.4167M6.58337 20C6.34367 21.1688 5.27402 23.6943 6.36835 24.5093C6.94037 24.9254 7.85188 24.4809 9.67489 23.592C10.9543 22.9682 12.249 22.2527 13.6471 21.9309C14.1587 21.8143 14.6795 21.7646 15.3334 21.75C19.7331 21.75 21.933 21.75 23.2999 20.3832C24.6049 19.0781 24.6639 17.0136 24.6666 13" stroke="#F205B7" stroke-width="1.5" stroke-linecap="round"/>
<path d="M8.33337 15.3333H15.3334M8.33337 9.5H11.8334" stroke="#F205B7" stroke-width="1.5" stroke-linecap="round" stroke-linejoin="round"/>
</svg>
